<svg width="502" height="101" xmlns="http://www.w3.org/2000/svg" xmlns:xlink="http://www.w3.org/1999/xlink" xml:space="preserve" overflow="hidden"><defs><clipPath id="clip0"><rect x="366" y="309" width="502" height="101"/></clipPath></defs><g clip-path="url(#clip0)" transform="translate(-366 -309)"><path d="M24.0762-1.74058C42.0839-1.74058 54.0133-8.80694 54.0133-18.9886 54.0133-25.371 47.7066-29.6262 36.4595-30.8418L36.6875-31.7538C50.5182-32.6657 58.1179-39.428 58.1179-46.1898 58.1179-52.5722 51.2034-58.5748 37.2987-58.5748L10.9312-58.5748 13.1345-53.864 1.81333-6.45177-2.97357-1.74058ZM28.636-56.904 35.9295-56.904C41.1724-56.904 43.5275-52.9529 43.5275-48.0898 43.5275-40.8716 38.4365-32.2094 30.9903-32.2094L22.7083-32.2094ZM22.4046-30.6139 30.5348-30.6139C36.3855-30.6139 39.1966-26.1302 39.1966-20.6602 39.1966-12.6819 33.4978-3.33607 24.1519-3.33607L15.8699-3.33607ZM77.568-1.74058 75.2885-6.45134 86.6858-53.8644 91.3966-58.5752 69.5897-58.5752 71.793-53.8644 60.4718-6.45177 55.6849-1.74058ZM89.5731-24.7631C89.5731-11.0103 100.667-0.828625 114.647-0.828625 121.334-0.828625 127.488-2.3484 131.895-5.0077L137.974-0.752911 143.976-25.9031 148.383-30.8418 120.574-30.8418 120.193-29.0941 130.755-29.0941 126.121-10.0247C123.537-5.46579 119.662-2.50237 115.711-2.5802 109.329-2.5802 104.845-10.4824 104.845-21.804 104.845-41.5573 115.407-58.2757 127.944-58.1996 135.694-58.1996 141.317-50.2974 143.52-36.6206L145.648-54.5526 145.952-55.8444C141.545-58.3519 134.405-60.0235 128.172-60.0235 107.429-60.0214 89.5731-43.6832 89.5731-24.7636Z" fill="#BE0323" transform="matrix(1 0 0 1.00175 471.194 390.213)"/><path d="M12.1003-34.1534 20.4077-34.1534 12.8892-3.01164 7.7829-1.01516 20.5469-1.01516 16.1842-3.01164 23.6566-34.1534 32.2889-34.1534 35.4913-25.5668 36.0484-34.2456 36.2806-35.0345 8.20165-35.0345 7.96943-34.2456 4.34954-25.5677ZM43.9844-1.01516 39.6217-3.01164 43.5204-19.1163 61.5741-19.1163 57.6755-3.01164 52.5705-1.01516 64.082-1.01516 60.9244-3.01164 68.1646-33.0397 72.4342-35.0353 60.5531-35.0353 64.9157-33.0397 61.8064-19.9517 43.706-19.9517 46.8619-33.0397 52.0134-35.0353 40.4571-35.0353 43.613-33.0397 36.3732-3.01164 32.1045-1.01516ZM92.9942-1.01516 93.1334-1.75792 96.8463-11.0399 89.1421-1.8514 73.7802-1.8514 77.7714-18.5127 86.8233-18.5127 88.2158-13.129 91.0003-24.6853 87.0077-19.3485 78.0037-19.3485 81.5775-34.153 95.6865-34.153 98.7032-26.2165 99.2603-34.2456 99.446-35.0345 74.987-35.0345 78.0037-33.0388 70.8552-3.19649 66.633-1.01516Z" fill="#FFFFFF" transform="matrix(1 0 0 1.00175 362.053 367.419)"/><path d="M12.1003-34.1716 20.4077-34.1716 12.8892-3.02983 7.7829-1.03419 20.5469-1.03419 16.1842-3.02983 23.6566-34.1716 32.2889-34.1716 35.4913-25.585 36.0484-34.2638 36.2806-35.0526 8.20165-35.0526 7.96943-34.2638 4.34954-25.5854ZM43.9844-1.03419 39.6217-3.02983 43.5204-19.1345 61.5741-19.1345 57.6755-3.02983 52.5701-1.03419 64.082-1.03419 60.9261-3.02983 68.1663-33.0579 72.4359-35.0535 60.5531-35.0535 64.9157-33.0579 61.8064-19.9699 43.706-19.9699 46.8619-33.0579 52.0134-35.0535 40.4571-35.0535 43.613-33.0579 36.3732-3.02983 32.1045-1.03419ZM77.2609-1.03419 74.1067-3.02983 81.3469-33.0113 85.6165-35.0535 74.987-35.0535 78.0963-33.0579 70.9026-3.07636 66.633-1.03419ZM88.8638-1.03419 85.1973-3.02983 91.6948-29.9472 92.0662-29.9472 109.842 0.0795209 117.824-32.9652 122.465-35.0539 113.137-35.0539 116.71-33.0583 110.352-6.46403 109.749-6.46403 92.4841-35.5653 88.5393-35.0548 90.999-31.7597 84.0836-3.12373 79.4422-1.03419ZM127.71-1.03419 123.765-3.02983 127.756-19.5059 146.552 1.936 149.987 0.914913 130.819-20.2948 154.349-35.0535 150.032-35.0535 129.518-20.063 127.847-20.063 131.003-33.0579 135.968-35.0535 124.6-35.0535 127.71-33.0579 120.516-3.07636 116.293-1.03419ZM177.23-1.03419 177.369-1.77695 181.082-11.0593 173.378-1.86959 158.016-1.86959 162.007-18.5309 171.059-18.5309 172.45-13.1472 175.234-24.7022 171.243-19.365 162.24-19.365 165.813-34.1695 179.922-34.1695 182.94-26.2351 183.497-34.2642 183.683-35.0531 159.223-35.0531 162.24-33.0574 155.092-3.21467 150.868-1.03335ZM192.453-1.03419 188.926-3.02983 192.5-17.8812 197.373-17.8812 210.553 2.07558 213.941 1.14755 201.132-17.3707 201.271-18.0204C207.304-18.7631 212.966-22.7544 212.966-28.0451 212.966-31.9898 209.207-35.0531 203.359-35.0531L189.761-35.0531 192.87-33.0574 185.677-3.07636 181.454-1.03419ZM196.398-34.1716 202.615-34.1716C207.21-34.1716 209.623-31.9437 209.623-28.5095 209.623-23.1723 205.122-18.6705 199.181-18.6705L192.685-18.6705ZM216.494-2.74939C218.628-1.40346 222.204-0.521539 225.636-0.475433 231.948-0.3828 236.311-4.23491 236.311-9.66475 236.311-17.8795 224.662-20.8497 224.662-27.9042 224.662-31.8955 227.632-34.7731 231.67-34.7731 235.8-34.7731 238.539-31.5706 239.513-24.934L240.024-32.6383 240.209-33.4271C237.791-34.8604 235.038-35.6298 232.227-35.6575 226.517-35.6575 222.016-31.898 222.016-26.4217 222.016-18.4852 233.526-15.5616 233.526-8.46052 233.526-4.19092 230.65-1.3121 226.472-1.35947 221.32-1.35947 218.025-5.07242 217.42-11.6164L216.631-3.49511Z" fill="#FFFFFF" transform="matrix(1 0 0 1.00175 627.391 390.197)"/><path d="M0 20.9639 0 20.9639 0 20.9639 1.17801 16.5695 46.7029 0 45.5257 4.39395 0 20.9635Z" fill="#BE0323" transform="matrix(1 0 0 1.00175 410.919 388.999)"/><path d="M0 22.1753 0 22.1753 0 22.1753 1.17759 17.7814 50.0313 0 48.8546 4.39395Z" fill="#BE0323" transform="matrix(1 0 0 1.00175 627.618 309)"/></g></svg>